<svg width="70" height="70" viewBox="0 0 140 140" fill="none" xmlns="http://www.w3.org/2000/svg"><g clip-path="url(#clip0_109_2975)"><rect width="140" height="140" fill="#917964"></rect><path d="M61.5 -0.5C61.5 24.5 89.5001 47.7 65.5001 58.5M65.5001 58.5C35.5001 72 53.0001 36 33.5001 50.5C14.0001 65 40.0001 109.5 56.5001 105.5C73.0001 101.5 93.5 90.5 93.5 72C93.5 57.2 74.8334 56.8333 65.5001 58.5Z" stroke="#D8C19A" stroke-width="2"></path><path d="M115.5 18C103.5 8.40004 98.5 24.3334 97.5 33.5C83.5 23.5001 77.5 45.5 86.5 52C90.5631 54.9345 104.833 65.5 115.5 69.5C120.5 56.3333 127.5 27.6 115.5 18Z" fill="#9F876E"></path><path d="M115.5 69.5C120.5 56.3333 127.5 27.6 115.5 18C103.5 8.40004 98.5 24.3334 97.5 33.5C83.5 23.5001 77.5 45.5 86.5 52C90.5631 54.9345 104.833 65.5 115.5 69.5ZM115.5 69.5C135 111 61.5 118 61.5 140" stroke="#D8C19A" stroke-width="2"></path></g><defs><clipPath id="clip0_109_2975"><rect width="140" height="140" fill="white"></rect></clipPath></defs></svg>