<svg width="100" height="100" viewBox="0 0 280 280" fill="none" xmlns="http://www.w3.org/2000/svg"><rect width="280" height="280" fill="#0D1112"></rect><path d="M67.5 53L69.1839 58.1824H74.6329L70.2245 61.3853L71.9084 66.5676L67.5 63.3647L63.0916 66.5676L64.7755 61.3853L60.3671 58.1824H65.8161L67.5 53Z" fill="pink"></path><path d="M67.5 53L69.1839 58.1824H74.6329L70.2245 61.3853L71.9084 66.5676L67.5 63.3647L63.0916 66.5676L64.7755 61.3853L60.3671 58.1824H65.8161L67.5 53Z" fill="pink"></path><path d="M193.5 123L195.408 128.873L201.584 128.873L196.588 132.503L198.496 138.377L193.5 134.747L188.504 138.377L190.412 132.503L185.416 128.873L191.592 128.873L193.5 123Z" fill="pink"></path><path d="M152.5 228L155.306 236.637H164.388L157.041 241.975L159.847 250.613L152.5 245.275L145.153 250.613L147.959 241.975L140.612 236.637H149.694L152.5 228Z" fill="pink"></path><path d="M34.026 169.937L36.9872 172.041L39.9036 169.875L38.8173 173.342L41.7784 175.446L38.1459 175.484L37.0596 178.951L35.9009 175.508L32.2684 175.546L35.1847 173.38L34.026 169.937Z" fill="pink"></path><path d="M229.817 24.3836L233.37 26.9088L236.87 24.3096L235.566 28.4694L239.12 30.9946L234.761 31.0403L233.457 35.2001L232.067 31.0686L227.708 31.1142L231.207 28.5151L229.817 24.3836Z" fill="pink"></path></svg>